<svg width="56" height="56" viewBox="0 0 56 56" fill="none" xmlns="http://www.w3.org/2000/svg">
<rect width="56" height="56" rx="8" fill="#F2F2F2"/>
<path d="M41.5413 31.9762C41.6663 31.1675 41.75 30.3438 41.75 29.5C41.75 20.54 34.46 13.25 25.5 13.25C16.54 13.25 9.25 20.54 9.25 29.5C9.25 38.46 16.54 45.75 25.5 45.75C26.3438 45.75 27.1675 45.6663 27.975 45.5413C29.6775 48.6413 32.9725 50.75 36.75 50.75C42.2637 50.75 46.75 46.2637 46.75 40.75C46.75 36.9713 44.6413 33.6775 41.5413 31.9762ZM25.5 43.25C17.9187 43.25 11.75 37.0812 11.75 29.5C11.75 21.9187 17.9187 15.75 25.5 15.75C33.0812 15.75 39.25 21.9187 39.25 29.5C39.25 30.0275 39.2188 30.5462 39.1625 31.0562C38.3888 30.8638 37.5825 30.75 36.75 30.75C31.2362 30.75 26.75 35.2362 26.75 40.75C26.75 41.5825 26.8638 42.3888 27.0562 43.1625C26.5462 43.2188 26.0275 43.25 25.5 43.25ZM36.75 48.25C32.6138 48.25 29.25 44.8862 29.25 40.75C29.25 36.6138 32.6138 33.25 36.75 33.25C40.8862 33.25 44.25 36.6138 44.25 40.75C44.25 44.8862 40.8862 48.25 36.75 48.25Z" fill="#6D758F"/>
<path d="M41.125 35.8574L34.875 42.1074L32.375 39.6074L30.6075 41.3749L33.9913 44.7587C34.235 45.0024 34.555 45.1249 34.875 45.1249C35.195 45.1249 35.515 45.0024 35.7588 44.7587L42.8925 37.6249L41.125 35.8574Z" fill="#6D758F"/>
<path d="M26.75 18.25H24.25V28.9825L18.7325 34.5L20.5 36.2675L26.3838 30.3837C26.6188 30.15 26.75 29.8325 26.75 29.5V18.25Z" fill="#6D758F"/>
</svg>
