<svg width="56" height="56" viewBox="0 0 56 56" fill="none" xmlns="http://www.w3.org/2000/svg">
<rect width="56" height="56" rx="8" fill="#F2F2F2"/>
<g clip-path="url(#clip0_4001_1430)">
<path d="M40.3209 14.0612C35.5203 11.6609 31.4562 13.1145 29.1719 14.2862V8H26.8281V14.2875C24.5448 13.1172 20.4784 11.6616 15.6791 14.0612C14.3854 14.708 12.8414 15.1094 11.239 15.1094H8V17.4531H11.239C11.5404 17.4531 11.8418 17.4405 12.1425 17.418L8 27.7743V28C8 31.2309 10.6285 33.8594 13.8594 33.8594C17.0902 33.8594 19.7188 31.2309 19.7188 28V27.7743L15.3112 16.7555C15.7952 16.5857 16.2688 16.3867 16.7272 16.1576C21.3934 13.8245 25.0516 15.9301 26.8281 16.9662V27.0297C25.4641 27.5134 24.4844 28.816 24.4844 30.3438V36.4828C23.1204 36.9666 22.1406 38.2691 22.1406 39.7969C22.1406 40.2365 22.2225 40.6572 22.3705 41.0455C19.97 41.4352 18.0538 43.2877 17.5711 45.6562H12.7656V48H43.2344V45.6562H38.429C37.9463 43.2878 36.0301 41.4352 33.6295 41.0455C33.7775 40.6572 33.8594 40.2365 33.8594 39.7969C33.8594 38.2691 32.8796 36.9666 31.5156 36.4828V30.3438C31.5156 28.816 30.5359 27.5134 29.1719 27.0297V16.9656C30.8174 16.0043 34.6073 13.8248 39.2728 16.1576C39.7312 16.3868 40.2048 16.5857 40.6888 16.7555L36.2812 27.7743V28C36.2812 31.2309 38.9098 33.8594 42.1406 33.8594C45.3715 33.8594 48 31.2309 48 28V27.7743L43.8575 17.418C44.1582 17.4405 44.4596 17.453 44.761 17.453H48V15.1094H44.761C43.3376 15.1094 41.7694 14.7854 40.3209 14.0612ZM13.8594 31.5156C12.3316 31.5156 11.0288 30.5359 10.5452 29.1711H17.1736C16.6899 30.5359 15.3872 31.5156 13.8594 31.5156ZM16.8159 26.8281H10.9028L13.8594 19.4366L16.8159 26.8281ZM26.8281 30.3438C26.8281 29.6976 27.3538 29.1719 28 29.1719C28.6462 29.1719 29.1719 29.6976 29.1719 30.3438V36.2812H26.8281V30.3438ZM32.6875 43.3125C34.2152 43.3125 35.5178 44.2923 36.0016 45.6562H19.9984C20.4822 44.2923 21.7848 43.3125 23.3125 43.3125H32.6875ZM30.3438 38.625C30.9899 38.625 31.5156 39.1507 31.5156 39.7969C31.5156 40.443 30.9899 40.9688 30.3438 40.9688H25.6562C25.0101 40.9688 24.4844 40.443 24.4844 39.7969C24.4844 39.1507 25.0101 38.625 25.6562 38.625H30.3438ZM42.1406 31.5156C40.6129 31.5156 39.3101 30.5359 38.8263 29.1711H45.4548C44.9712 30.5359 43.6684 31.5156 42.1406 31.5156ZM45.0973 26.8281H39.184L42.1406 19.4366L45.0973 26.8281Z" fill="#6D758F"/>
</g>
<defs>
<clipPath id="clip0_4001_1430">
<rect width="40" height="40" fill="white" transform="translate(8 8)"/>
</clipPath>
</defs>
</svg>
