<svg xmlns="http://www.w3.org/2000/svg" width="176" height="73" viewBox="0 0 176 73" fill="none"><path d="M0.78064 57.9829C0.78064 57.872 2.03521 54.9137 3.58498 51.4007C7.20109 43.1544 10.1161 36.4982 18.8981 16.4186L26.0566 0.0369263L28.9716 0.147863L31.9235 0.2588L36.9787 12.0921C39.7831 18.6004 42.9933 26.1071 44.1372 28.7696L46.2035 33.6138L56.6091 33.4659L67.0146 33.318L67.1253 16.7144L67.1991 0.0739052H82.992C100.667 0.0739052 101.995 0.221821 106.681 2.51452C110.26 4.28951 114.135 8.13531 115.795 11.5744C117.64 15.3092 118.231 18.1196 118.046 22.2243C117.64 31.3581 112.069 38.6429 103.36 41.5643C101.146 42.3039 100.039 42.3778 88.5268 42.5257L76.0549 42.6736V50.4022V58.1308H71.627H67.1991L67.1253 50.4762L67.0146 42.7846L58.6385 42.6736C53.9892 42.6367 50.2255 42.6736 50.2255 42.7846C50.2255 42.8955 51.6277 46.2976 53.3619 50.3283C55.0962 54.359 56.4984 57.7611 56.4984 57.909C56.4984 58.0199 54.3213 58.0939 51.6646 58.0569L46.8677 57.946L43.6206 50.3653L40.4103 42.7846L32.7722 42.5997L25.171 42.4148L26.647 38.9018C27.4587 36.9789 28.2705 35.019 28.455 34.5753C28.824 33.6878 29.193 33.6138 34.1744 33.5768C35.5765 33.5399 36.0193 33.3919 35.9824 32.9852C35.9086 31.9867 29.0823 16.3816 28.824 16.5295C28.6764 16.6405 27.4956 19.0811 26.2411 21.9654C24.9865 24.8868 22.9939 29.4352 21.8132 32.0607C20.6324 34.7232 18.566 39.4565 17.2008 42.5997C15.7986 45.7429 13.7322 50.5132 12.5884 53.1387L10.4851 57.946L5.61443 58.0569C2.95769 58.0939 0.78064 58.0569 0.78064 57.9829ZM101.146 32.8003C106.165 31.0253 109.596 25.7373 109.19 20.4123C108.969 17.528 107.124 13.7931 105.095 12.166C101.442 9.17073 99.7442 8.87489 86.5712 9.02281L76.2394 9.13375L76.1287 21.2628L76.0549 33.355H87.8258C97.3088 33.355 99.8918 33.244 101.146 32.8003Z" fill="#E62646"></path><path d="M125.5 29.1024V0L138.894 0.184895C153.765 0.332811 154.17 0.406768 159.631 3.03227C168.118 7.09996 173.948 14.7916 175.683 24.2582C176.31 27.5863 175.978 33.4659 174.945 37.0529C172.731 44.8185 166.864 51.8075 159.595 55.2096C154.244 57.7611 153.432 57.872 138.71 58.02L125.5 58.2049V29.1024ZM153.396 48.0726C159.595 45.8539 164.502 40.8248 166.31 34.8711C167.307 31.691 167.196 26.0702 166.126 22.9269C164.65 18.4895 161.772 14.7916 157.86 12.24C153.765 9.57755 150.038 8.87495 140.997 9.02286L134.54 9.1338L134.429 28.7326C134.392 39.5305 134.429 48.5534 134.54 48.8492C134.688 49.256 136.237 49.2929 142.769 49.182C150.185 49.0341 150.96 48.9601 153.396 48.0726Z" fill="#E62646"></path><path d="M173.711 73.0006C173.453 73.0006 173.234 72.9826 173.054 72.9464C172.874 72.9103 172.712 72.8586 172.567 72.7915C172.423 72.7244 172.266 72.647 172.096 72.5592V71.9552C172.261 72.0946 172.482 72.2185 172.76 72.3269C173.039 72.4353 173.363 72.4895 173.734 72.4895C174.126 72.4895 174.409 72.4069 174.584 72.2417C174.764 72.0713 174.855 71.8571 174.855 71.5989C174.855 71.3821 174.795 71.2092 174.677 71.0801C174.558 70.9459 174.406 70.8374 174.221 70.7548C174.036 70.6671 173.84 70.5845 173.634 70.507C173.459 70.4451 173.283 70.3805 173.108 70.3134C172.938 70.2411 172.784 70.1534 172.645 70.0501C172.505 69.9417 172.395 69.8049 172.312 69.6397C172.23 69.4693 172.189 69.2576 172.189 69.0047C172.189 68.8653 172.214 68.7181 172.266 68.5632C172.323 68.4084 172.41 68.2638 172.529 68.1296C172.652 67.9953 172.815 67.8869 173.016 67.8043C173.222 67.7217 173.471 67.6804 173.765 67.6804C173.966 67.6804 174.136 67.6959 174.275 67.7269C174.419 67.7527 174.556 67.794 174.685 67.8508C174.813 67.9024 174.958 67.967 175.117 68.0444V68.6175C174.983 68.54 174.855 68.4703 174.731 68.4084C174.613 68.3413 174.479 68.2896 174.329 68.2535C174.185 68.2122 174.007 68.1915 173.796 68.1915C173.544 68.1915 173.34 68.2277 173.186 68.2999C173.036 68.3722 172.925 68.4677 172.853 68.5865C172.786 68.7052 172.753 68.8317 172.753 68.9659C172.753 69.1776 172.799 69.3454 172.892 69.4693C172.99 69.5932 173.124 69.6965 173.294 69.7791C173.469 69.8565 173.67 69.934 173.896 70.0114C174.077 70.0734 174.257 70.143 174.437 70.2205C174.618 70.2928 174.78 70.3857 174.924 70.4993C175.074 70.6077 175.192 70.7471 175.28 70.9175C175.372 71.0827 175.419 71.2892 175.419 71.537C175.419 71.7693 175.367 71.9991 175.264 72.2262C175.161 72.4482 174.986 72.6341 174.739 72.7838C174.491 72.9283 174.149 73.0006 173.711 73.0006Z" fill="#E62646"></path><path d="M168.195 73.0005C167.685 73.0005 167.258 72.9024 166.913 72.7062C166.573 72.5049 166.315 72.208 166.14 71.8157C165.97 71.4233 165.885 70.9328 165.885 70.3443C165.885 69.4666 166.078 68.8058 166.465 68.3618C166.856 67.9126 167.433 67.688 168.195 67.688C168.711 67.688 169.138 67.7887 169.478 67.9901C169.823 68.1863 170.081 68.4805 170.251 68.8729C170.426 69.2653 170.514 69.7557 170.514 70.3443C170.514 71.2219 170.318 71.8854 169.926 72.3345C169.54 72.7785 168.963 73.0005 168.195 73.0005ZM168.195 72.4739C168.602 72.4739 168.935 72.3991 169.192 72.2493C169.45 72.0996 169.638 71.8673 169.756 71.5524C169.88 71.2374 169.942 70.8347 169.942 70.3443C169.942 69.8538 169.88 69.4537 169.756 69.1439C169.638 68.829 169.45 68.5967 169.192 68.447C168.935 68.2921 168.602 68.2146 168.195 68.2146C167.794 68.2146 167.464 68.2921 167.206 68.447C166.949 68.5967 166.758 68.829 166.635 69.1439C166.516 69.4537 166.457 69.8538 166.457 70.3443C166.457 70.8347 166.516 71.2374 166.635 71.5524C166.758 71.8673 166.949 72.0996 167.206 72.2493C167.464 72.3991 167.794 72.4739 168.195 72.4739Z" fill="#E62646"></path><path d="M160.306 72.9234V67.7581H161.921C162.725 67.7581 163.327 67.9749 163.729 68.4086C164.136 68.8371 164.34 69.4799 164.34 70.3369C164.34 71.1939 164.136 71.8392 163.729 72.2729C163.327 72.7066 162.725 72.9234 161.921 72.9234H160.306ZM160.862 72.3968H161.882C162.542 72.3968 163.021 72.2316 163.32 71.9012C163.618 71.5708 163.768 71.0493 163.768 70.3369C163.768 69.6244 163.618 69.103 163.32 68.7726C163.021 68.4422 162.542 68.2769 161.882 68.2769H160.862V72.3968Z" fill="#E62646"></path><path d="M154.22 72.9234L156.275 67.7581H156.832L158.88 72.9234H158.285L156.5 68.2769L156.615 68.2615L154.823 72.9234H154.22ZM155.124 71.3126L155.364 70.7783H157.89L157.929 71.3126H155.124Z" fill="#E62646"></path><path d="M150.994 73.0005C150.468 73.0005 150.028 72.9024 149.672 72.7062C149.317 72.5049 149.049 72.208 148.869 71.8157C148.693 71.4181 148.606 70.9251 148.606 70.3365C148.606 69.748 148.693 69.2575 148.869 68.8652C149.049 68.4728 149.317 68.1785 149.672 67.9823C150.028 67.7861 150.468 67.688 150.994 67.688C151.277 67.688 151.555 67.7164 151.828 67.7732C152.101 67.83 152.364 67.9178 152.616 68.0365V68.6173C152.374 68.5089 152.122 68.416 151.859 68.3386C151.596 68.256 151.328 68.2146 151.055 68.2146C150.623 68.2146 150.265 68.2921 149.981 68.447C149.703 68.5967 149.497 68.829 149.363 69.1439C149.229 69.4537 149.162 69.8512 149.162 70.3365C149.162 70.8218 149.229 71.2219 149.363 71.5369C149.497 71.8518 149.703 72.0867 149.981 72.2416C150.265 72.3913 150.623 72.4662 151.055 72.4662C151.261 72.4662 151.462 72.4507 151.658 72.4197C151.854 72.3887 152.047 72.3423 152.238 72.2803V70.8089H150.994V70.2668H152.794V72.5978C152.511 72.732 152.22 72.8327 151.921 72.8998C151.622 72.967 151.313 73.0005 150.994 73.0005Z" fill="#E62646"></path><path d="M144.744 73.0005C144.234 73.0005 143.806 72.9024 143.461 72.7062C143.121 72.5049 142.864 72.208 142.689 71.8157C142.519 71.4233 142.434 70.9328 142.434 70.3443C142.434 69.4666 142.627 68.8058 143.013 68.3618C143.405 67.9126 143.982 67.688 144.744 67.688C145.259 67.688 145.687 67.7887 146.027 67.9901C146.372 68.1863 146.63 68.4805 146.8 68.8729C146.975 69.2653 147.062 69.7557 147.062 70.3443C147.062 71.2219 146.867 71.8854 146.475 72.3345C146.089 72.7785 145.512 73.0005 144.744 73.0005ZM144.744 72.4739C145.151 72.4739 145.483 72.3991 145.741 72.2493C145.998 72.0996 146.187 71.8673 146.305 71.5524C146.429 71.2374 146.49 70.8347 146.49 70.3443C146.49 69.8538 146.429 69.4537 146.305 69.1439C146.187 68.829 145.998 68.5967 145.741 68.447C145.483 68.2921 145.151 68.2146 144.744 68.2146C144.342 68.2146 144.013 68.2921 143.755 68.447C143.497 68.5967 143.307 68.829 143.183 69.1439C143.065 69.4537 143.005 69.8538 143.005 70.3443C143.005 70.8347 143.065 71.2374 143.183 71.5524C143.307 71.8673 143.497 72.0996 143.755 72.2493C144.013 72.3991 144.342 72.4739 144.744 72.4739Z" fill="#E62646"></path><path d="M138.783 72.9234L136.805 67.7581H137.4L139.185 72.451H138.984L140.738 67.7736L141.31 67.7581L139.332 72.9234H138.783Z" fill="#E62646"></path><path d="M131.535 72.9234V67.7581H133.15C133.954 67.7581 134.556 67.9749 134.958 68.4086C135.365 68.8371 135.569 69.4799 135.569 70.3369C135.569 71.1939 135.365 71.8392 134.958 72.2729C134.556 72.7066 133.954 72.9234 133.15 72.9234H131.535ZM132.091 72.3968H133.111C133.771 72.3968 134.25 72.2316 134.549 71.9012C134.847 71.5708 134.997 71.0493 134.997 70.3369C134.997 69.6244 134.847 69.103 134.549 68.7726C134.25 68.4422 133.771 68.2769 133.111 68.2769H132.091V72.3968Z" fill="#E62646"></path><path d="M125.449 72.9234L127.504 67.7581H128.061L130.109 72.9234H129.514L127.729 68.2769L127.844 68.2615L126.052 72.9234H125.449ZM126.353 71.3126L126.593 70.7783H129.119L129.158 71.3126H126.353Z" fill="#E62646"></path><path d="M119.037 73.0005C118.527 73.0005 118.099 72.9024 117.754 72.7062C117.414 72.5049 117.156 72.208 116.981 71.8157C116.811 71.4233 116.726 70.9328 116.726 70.3443C116.726 69.4666 116.919 68.8058 117.306 68.3618C117.697 67.9126 118.274 67.688 119.037 67.688C119.552 67.688 119.98 67.7887 120.32 67.9901C120.665 68.1863 120.922 68.4805 121.092 68.8729C121.267 69.2653 121.355 69.7557 121.355 70.3443C121.355 71.2219 121.159 71.8854 120.768 72.3345C120.381 72.7785 119.804 73.0005 119.037 73.0005ZM119.037 72.4739C119.444 72.4739 119.776 72.3991 120.034 72.2493C120.291 72.0996 120.479 71.8673 120.598 71.5524C120.721 71.2374 120.783 70.8347 120.783 70.3443C120.783 69.8538 120.721 69.4537 120.598 69.1439C120.479 68.829 120.291 68.5967 120.034 68.447C119.776 68.2921 119.444 68.2146 119.037 68.2146C118.635 68.2146 118.305 68.2921 118.048 68.447C117.79 68.5967 117.6 68.829 117.476 69.1439C117.357 69.4537 117.298 69.8538 117.298 70.3443C117.298 70.8347 117.357 71.2374 117.476 71.5524C117.6 71.8673 117.79 72.0996 118.048 72.2493C118.305 72.3991 118.635 72.4739 119.037 72.4739Z" fill="#E62646"></path><path d="M113.65 72.985C112.857 72.985 112.259 72.763 111.858 72.319C111.461 71.875 111.263 71.2142 111.263 70.3365C111.263 69.4589 111.461 68.798 111.858 68.354C112.259 67.91 112.857 67.688 113.65 67.688C113.923 67.688 114.191 67.7216 114.454 67.7887C114.717 67.8558 114.972 67.9488 115.219 68.0675V68.6019C114.982 68.4728 114.737 68.3773 114.485 68.3153C114.232 68.2482 113.975 68.2146 113.712 68.2146C113.279 68.2146 112.924 68.2895 112.646 68.4392C112.373 68.5889 112.169 68.8213 112.035 69.1362C111.906 69.446 111.842 69.8461 111.842 70.3365C111.842 70.827 111.906 71.2297 112.035 71.5446C112.169 71.8544 112.373 72.0841 112.646 72.2338C112.924 72.3836 113.279 72.4584 113.712 72.4584C113.975 72.4584 114.232 72.4274 114.485 72.3655C114.737 72.3035 114.982 72.208 115.219 72.079V72.6133C115.054 72.6907 114.884 72.7579 114.709 72.8147C114.539 72.8714 114.364 72.9127 114.183 72.9386C114.008 72.9695 113.831 72.985 113.65 72.985Z" fill="#E62646"></path><path d="M109.005 72.9234V67.7581H109.561V72.9234H109.005Z" fill="#E62646"></path><path d="M102.319 72.9234V67.7581H102.922L104.831 70.6931L104.452 70.7783L106.469 67.7581H107.072V72.9234H106.515V68.3157H106.762L104.637 71.3049L102.675 68.3776L102.876 68.0911V72.9234H102.319Z" fill="#E62646"></path><path d="M96.2333 72.9234L98.2888 67.7581H98.8452L100.893 72.9234H100.298L98.5129 68.2769L98.6288 68.2615L96.8361 72.9234H96.2333ZM97.1374 71.3126L97.377 70.7783H99.9039L99.9425 71.3126H97.1374Z" fill="#E62646"></path><path d="M90.9633 72.9234V67.7581H92.5783C93.382 67.7581 93.9847 67.9749 94.3866 68.4086C94.7935 68.8371 94.997 69.4799 94.997 70.3369C94.997 71.1939 94.7935 71.8392 94.3866 72.2729C93.9847 72.7066 93.382 72.9234 92.5783 72.9234H90.9633ZM91.5197 72.3968H92.5397C93.1991 72.3968 93.6782 72.2316 93.977 71.9012C94.2758 71.5708 94.4252 71.0493 94.4252 70.3369C94.4252 69.6244 94.2758 69.103 93.977 68.7726C93.6782 68.4422 93.1991 68.2769 92.5397 68.2769H91.5197V72.3968Z" fill="#E62646"></path><path d="M85.6142 72.9234V67.7581H86.1706V72.9234H85.6142Z" fill="#E62646"></path><path d="M80.8304 72.9234V67.7581H83.991V68.2847H81.3868V70.0658H83.6741V70.6079H81.3868V72.9234H80.8304Z" fill="#E62646"></path><path d="M76.1674 72.9234V67.7581H76.7238V72.3813H79.3588V72.9234H76.1674Z" fill="#E62646"></path><path d="M72.1125 73.0005C71.6025 73.0005 71.1749 72.9024 70.8297 72.7062C70.4897 72.5049 70.2322 72.208 70.057 71.8157C69.887 71.4233 69.802 70.9328 69.802 70.3443C69.802 69.4666 69.9952 68.8058 70.3816 68.3618C70.7731 67.9126 71.3501 67.688 72.1125 67.688C72.6277 67.688 73.0552 67.7887 73.3952 67.9901C73.7404 68.1863 73.998 68.4805 74.168 68.8729C74.3431 69.2653 74.4307 69.7557 74.4307 70.3443C74.4307 71.2219 74.235 71.8854 73.8434 72.3345C73.4571 72.7785 72.8801 73.0005 72.1125 73.0005ZM72.1125 72.4739C72.5195 72.4739 72.8517 72.3991 73.1093 72.2493C73.3669 72.0996 73.5549 71.8673 73.6734 71.5524C73.7971 71.2374 73.8589 70.8347 73.8589 70.3443C73.8589 69.8538 73.7971 69.4537 73.6734 69.1439C73.5549 68.829 73.3669 68.5967 73.1093 68.447C72.8517 68.2921 72.5195 68.2146 72.1125 68.2146C71.7107 68.2146 71.381 68.2921 71.1234 68.447C70.8658 68.5967 70.6752 68.829 70.5516 69.1439C70.4331 69.4537 70.3738 69.8538 70.3738 70.3443C70.3738 70.8347 70.4331 71.2374 70.5516 71.5524C70.6752 71.8673 70.8658 72.0996 71.1234 72.2493C71.381 72.3991 71.7107 72.4739 72.1125 72.4739Z" fill="#E62646"></path><path d="M64.2229 72.9234V67.7581H65.8379C66.6416 67.7581 67.2443 67.9749 67.6461 68.4086C68.0531 68.8371 68.2566 69.4799 68.2566 70.3369C68.2566 71.1939 68.0531 71.8392 67.6461 72.2729C67.2443 72.7066 66.6416 72.9234 65.8379 72.9234H64.2229ZM64.7793 72.3968H65.7993C66.4587 72.3968 66.9378 72.2316 67.2366 71.9012C67.5354 71.5708 67.6848 71.0493 67.6848 70.3369C67.6848 69.6244 67.5354 69.103 67.2366 68.7726C66.9378 68.4422 66.4587 68.2769 65.7993 68.2769H64.7793V72.3968Z" fill="#E62646"></path><path d="M58.028 72.9234V67.7581H58.6616L61.8762 72.3039L61.7371 72.5207V67.7581H62.2935V72.9234H61.6676L58.3293 68.2072L58.5843 67.9672V72.9234H58.028Z" fill="#E62646"></path><path d="M51.9421 72.9234L53.9976 67.7581H54.5539L56.6017 72.9234H56.0067L54.2217 68.2769L54.3376 68.2615L52.5448 72.9234H51.9421ZM52.8462 71.3126L53.0857 70.7783H55.6126L55.6512 71.3126H52.8462Z" fill="#E62646"></path><path d="M48.2245 70.9487V72.9234H47.6681V67.7581H49.4995C50.0765 67.7581 50.5169 67.8949 50.8209 68.1685C51.13 68.4422 51.2845 68.8371 51.2845 69.3534C51.2845 69.8696 51.13 70.2646 50.8209 70.5382C50.5169 70.8118 50.0765 70.9487 49.4995 70.9487H48.2245ZM48.2245 70.4143H49.4299C49.7184 70.4143 49.9477 70.3833 50.1177 70.3214C50.2928 70.2594 50.4242 70.1768 50.5118 70.0736C50.5994 69.9652 50.656 69.849 50.6818 69.7251C50.7127 69.6012 50.7281 69.4773 50.7281 69.3534C50.7281 69.2295 50.7127 69.1056 50.6818 68.9817C50.656 68.8578 50.5994 68.7442 50.5118 68.6409C50.4242 68.5325 50.2928 68.4473 50.1177 68.3854C49.9477 68.3234 49.7184 68.2924 49.4299 68.2924H48.2245V70.4143Z" fill="#E62646"></path><path d="M42.5472 72.9235L40.0513 69.942C39.9379 69.8026 39.8246 69.6348 39.7112 69.4387C39.5979 69.2425 39.5412 69.054 39.5412 68.8733C39.5412 68.6565 39.5928 68.4603 39.6958 68.2848C39.804 68.1093 39.9456 67.9699 40.1208 67.8666C40.3011 67.7582 40.4969 67.704 40.7081 67.704C40.9296 67.704 41.1279 67.7556 41.3031 67.8589C41.4782 67.957 41.6173 68.0938 41.7204 68.2693C41.8286 68.4397 41.8827 68.6307 41.8827 68.8424C41.8827 69.0334 41.8414 69.2012 41.759 69.3457C41.6766 69.4903 41.5581 69.6245 41.4036 69.7484C41.249 69.8672 41.0635 69.9885 40.8472 70.1124L40.569 69.7717C40.806 69.6426 40.9811 69.5264 41.0945 69.4232C41.2078 69.3199 41.2799 69.2218 41.3108 69.1289C41.3469 69.0308 41.3649 68.9379 41.3649 68.8501C41.3649 68.6797 41.3031 68.5403 41.1795 68.4319C41.0558 68.3183 40.9038 68.2616 40.7235 68.2616C40.5484 68.2616 40.3964 68.3235 40.2676 68.4474C40.144 68.5662 40.0822 68.7107 40.0822 68.8811C40.0822 68.9482 40.1131 69.036 40.1749 69.1444C40.2367 69.2528 40.3088 69.3638 40.3913 69.4774C40.4788 69.591 40.5613 69.6916 40.6385 69.7794L43.2736 72.9235H42.5472ZM40.6231 72.9855C40.3294 72.9855 40.0796 72.9364 39.8735 72.8383C39.6675 72.7402 39.5 72.6137 39.3712 72.4589C39.2476 72.304 39.1549 72.1414 39.0931 71.971C39.0364 71.8006 39.0081 71.6432 39.0081 71.4986C39.0081 71.3334 39.039 71.1579 39.1008 70.972C39.1678 70.7861 39.2837 70.6003 39.4485 70.4144C39.6185 70.2234 39.8555 70.0453 40.1594 69.8801L40.5226 70.2595C40.2444 70.4093 40.0358 70.5616 39.8967 70.7164C39.7576 70.8713 39.6649 71.0159 39.6185 71.1501C39.5773 71.2792 39.5567 71.3902 39.5567 71.4831C39.5567 71.5502 39.5722 71.638 39.6031 71.7464C39.634 71.8497 39.6881 71.9555 39.7653 72.0639C39.8426 72.1723 39.9534 72.2627 40.0976 72.335C40.2419 72.4072 40.4247 72.4434 40.6463 72.4434C40.8884 72.4434 41.1125 72.384 41.3186 72.2653C41.5246 72.1414 41.692 72.0097 41.8208 71.8703L42.1686 72.2653C42.0501 72.3892 41.911 72.5053 41.7513 72.6137C41.5916 72.7222 41.4164 72.8125 41.2258 72.8848C41.0352 72.9519 40.8343 72.9855 40.6231 72.9855ZM42.0527 71.5141C42.1093 71.4108 42.1583 71.3076 42.1995 71.2043C42.2407 71.0959 42.2742 70.9952 42.2999 70.9023C42.3308 70.8094 42.354 70.7345 42.3695 70.6777H42.8718C42.8408 70.8481 42.7868 71.0443 42.7095 71.2663C42.6322 71.4831 42.5292 71.6974 42.4004 71.909L42.0527 71.5141Z" fill="#E62646"></path><path d="M30.3024 72.9234L32.3579 67.7581H32.9142L34.962 72.9234H34.367L32.582 68.2769L32.6979 68.2615L30.9051 72.9234H30.3024ZM31.2065 71.3126L31.446 70.7783H33.9729L34.0115 71.3126H31.2065Z" fill="#E62646"></path><path d="M25.0323 72.9234V67.7581H26.6473C27.451 67.7581 28.0537 67.9749 28.4555 68.4086C28.8625 68.8371 29.066 69.4799 29.066 70.3369C29.066 71.1939 28.8625 71.8392 28.4555 72.2729C28.0537 72.7066 27.451 72.9234 26.6473 72.9234H25.0323ZM25.5887 72.3968H26.6087C27.2681 72.3968 27.7472 72.2316 28.046 71.9012C28.3448 71.5708 28.4942 71.0493 28.4942 70.3369C28.4942 69.6244 28.3448 69.103 28.046 68.7726C27.7472 68.4422 27.2681 68.2769 26.6087 68.2769H25.5887V72.3968Z" fill="#E62646"></path><path d="M22.5425 72.9234V67.7581H23.0989V72.9234H22.5425Z" fill="#E62646"></path><path d="M17.4343 72.9234V67.7581H20.6876V68.2847H17.9907V70.0658H20.363V70.6079H17.9907V72.3968H20.6876V72.9234H17.4343Z" fill="#E62646"></path><path d="M10.749 72.9234V67.7581H11.3517L13.2604 70.6931L12.8817 70.7783L14.8986 67.7581H15.5013V72.9234H14.9449V68.3157H15.1922L13.0672 71.3049L11.1044 68.3776L11.3053 68.0911V72.9234H10.749Z" fill="#E62646"></path><path d="M6.08594 72.9234V67.7581H6.64231V72.3813H9.27736V72.9234H6.08594Z" fill="#E62646"></path><path d="M0 72.9234L2.05549 67.7581H2.61186L4.65962 72.9234H4.06461L2.27958 68.2769L2.3955 68.2615L0.602738 72.9234H0ZM0.904106 71.3126L1.14366 70.7783H3.67052L3.70915 71.3126H0.904106Z" fill="#E62646"></path></svg>